<svg xmlns="http://www.w3.org/2000/svg" xmlns:xlink="http://www.w3.org/1999/xlink" xmlns:inkscape="http://www.inkscape.org/namespaces/inkscape" version="1.1" width="1927.56" height="425.197" viewBox="0 0 1927.56 425.197">
<defs>
<clipPath id="clip_0">
<path transform="matrix(1,0,0,-1,0,425.197)" d="M0 425.197H1927.559V0H0Z"/>
</clipPath>
</defs>
<g inkscape:groupmode="layer" inkscape:label="Layer 1">
<g clip-path="url(#clip_0)">
<path transform="matrix(1,0,0,-1,1814.5791,64.22339)" d="M0 0C-.621 .625-1.232 1.242-1.848 1.861-.967 3.247 .223 5.733 1.6 4.585 3.371 3.1 1.156 1.376 0 0" fill="#e2ede1"/>
<path transform="matrix(1,0,0,-1,1699.956,396.5163)" d="M0 0H-140.102C-166.688 0-183.299 16.707-183.363 43.883-183.473 97.637-183.393 151.355-183.393 205.098-183.393 244.085-183.408 283.079-183.393 322.073-183.371 351.453-167.049 368.134-138.219 368.145-45.795 368.167 46.625 368.167 139.053 368.145 168.914 368.134 184.928 351.759 184.928 321.269 184.938 229.549 184.664 137.824 185.082 46.096 185.215 16.018 165.195-.939 139.369-.318 92.932 .805 46.467 0 0 0" fill="#247e38"/>
<path transform="matrix(1,0,0,-1,1573.8193,368.7566)" d="M0 0C7.23 19.836 17.662 37.482 29.387 54.357 51.297 85.941 79.174 111.416 109.146 134.746 143.105 161.174 176.984 187.653 205.326 220.624 225.453 244.032 242.857 269.362 258.266 296.154 259.332 297.995 260.41 299.828 262.637 303.634 262.637 280.052 262.66 258.703 262.627 237.368 262.605 225.127 262.51 212.89 262.396 200.641 262.27 187.539 254.664 179.788 241.768 179.646 233.402 179.551 225.055 179.72 216.697 179.604 204.369 179.433 199.164 174.256 199.012 161.936 198.875 153.186 198.771 144.43 199.111 135.697 199.473 126.182 204.271 121.648 213.58 121.629 222.168 121.605 230.768 121.986 239.371 121.953 257.295 121.871 264.34 114.594 264.404 96.545 264.467 76.318 264.676 56.07 264.744 35.832 264.803 20.852 263.348 19.359 248.967 19.359 224.387 19.359 199.803 19.34 175.23 19.383 161.156 19.404 155.035 25.576 154.768 39.848 154.354 62.559 153.941 85.279 153.512 108.002 153.346 117.461 149.465 122.314 140.283 123.936 135.195 124.834 129.967 124.834 124.881 123.828 116.592 122.188 112.396 117.832 111.973 109.049 110.896 86.127 110.375 63.158 109.477 40.232 108.926 26.559 101.869 19.74 88.461 19.67 74.197 19.588 59.943 19.359 45.693 19.725 28.49 20.178 13.891 14.654 2.137 1.73 1.523 1.057 .707 .572 0 0" fill="#ffffff"/>
<path transform="matrix(1,0,0,-1,1827.7432,56.43628)" d="M0 0C-7.229-19.848-17.658-37.484-29.377-54.36-51.303-85.946-79.176-111.42-109.137-134.754-143.094-161.184-176.982-187.662-205.311-220.631-225.434-244.041-242.846-269.367-258.266-296.16-259.326-298.01-260.404-299.838-262.621-303.646-262.621-280.053-262.648-258.721-262.611-237.383-262.59-225.125-262.5-212.896-262.381-200.656-262.246-187.549-254.645-179.797-241.746-179.658-233.406-179.563-225.037-179.723-216.686-179.615-204.352-179.436-199.154-174.268-198.986-161.938-198.879-153.198-198.758-144.438-199.084-135.706-199.459-126.19-204.264-121.662-213.557-121.64-222.15-121.62-230.756-121.988-239.346-121.947-257.279-121.874-264.326-114.605-264.395-96.552-264.467-76.318-264.658-56.082-264.727-35.844-264.785-20.854-263.318-19.373-248.951-19.373-224.373-19.373-199.795-19.34-175.215-19.394-161.137-19.414-155.02-25.585-154.756-39.852-154.336-62.572-153.93-85.286-153.504-108.015-153.328-117.477-149.451-122.332-140.283-123.956-135.193-124.845-129.945-124.845-124.867-123.842-116.58-122.201-112.385-117.831-111.975-109.062-110.881-86.124-110.369-63.164-109.455-40.233-108.908-26.576-101.848-19.741-88.443-19.678-74.191-19.604-59.926-19.373-45.682-19.731-28.471-20.175-13.869-14.657-2.119-1.736-1.512-1.069-.705-.571 0 0" fill="#ffffff"/>
<path transform="matrix(1,0,0,-1,1376.1104,73.34888)" d="M0 0C-13.176 17.049-40.115 9.689-40.115 9.689-42.629 8.893-45.088 7.909-47.445 6.798-48.178 6.115-48.686 5.243-48.799 4.259-49.18-1.115-44.857-.312-44.857-.312L-41.893 .313C-35.736 1.724-23.402 3.945-14.416-.988-3.998-7.167-4.063-22.543-7.326-29.955-11.951-40.458-27.238-39.469-30.564-39.898H-75.676V-48.922H-34.123C-27.967-49.357-9.119-49.849-.604-38.672 3.396-34.039 5.805-28.287 6.342-22.242 6.844-14.762 4.875-7.287 .809-.988M-86.572-43.731C-86.572-40.21-89.459-37.308-92.977-37.308-96.49-37.308-99.385-40.21-99.385-43.731-99.197-47.007-96.49-49.535-93.215-49.535-89.963-49.535-87.311-47.007-87.063-43.791M-127.613-34.096C-126.07-29.711-125.207-25.078-125.086-20.381V5.924C-125.018 6.236-125.018 6.48-125.086 6.798-125.207 8.09-125.883 9.326-126.932 10.13H-127.486C-127.852 10.311-128.232 10.438-128.656 10.558H-129.83-131.365-132.479L-133.707 10.13C-133.834 10.067-134.023 10.067-134.146 10.13-135.254 9.379-135.992 8.153-136.055 6.798-136.119 6.48-136.119 6.236-136.055 5.924V-22.856C-136.119-27.418-137.77-31.811-140.807-35.202-144.811-38.545-149.922-40.395-155.162-40.332H-157.063C-162.369-40.395-167.484-38.545-171.42-35.09-174.383-31.626-176.109-27.304-176.168-22.729V6.058 7.031C-176.406 8.344-177.088 9.506-178.078 10.311H-178.58-178.875L-180.045 10.743H-181.16-182.635C-183.016 10.864-183.436 10.864-183.805 10.743-184.234 10.679-184.732 10.558-185.113 10.311H-185.594C-186.701 9.57-187.371 8.344-187.557 7.031-187.619 6.729-187.619 6.417-187.557 6.115V-19.957-22.486C-187.557-27.056-189.299-31.445-192.313-34.836-196.313-38.238-201.428-40.078-206.727-40.025H-207.779-209.318C-214.557-40.078-219.664-38.238-223.676-34.836-226.637-31.381-228.24-26.998-228.24-22.486V-20.328-19.645 6.236C-228.172 6.48-228.172 6.798-228.24 7.031-228.311 8.395-229.049 9.689-230.145 10.438H-230.572C-230.949 10.679-231.375 10.806-231.805 10.806-232.182 10.864-232.604 10.864-232.984 10.806H-234.461-235.691C-236.055 10.679-236.424 10.558-236.799 10.311H-237.109L-237.609 9.94C-238.709 9.199-239.393 7.973-239.449 6.66V5.811-20.265-20.878-40.147H-293.367C-298.48-40.025-303.406-38.238-307.361-34.963-310.68-30.885-312.41-25.702-312.166-20.449V-19.703 35.266C-312.104 38.048-314.387 40.333-317.15 40.396H-317.408-318.83C-321.594 40.514-323.943 38.292-324.061 35.509V35.329-19.645-22.242C-324.061-26.802-325.777-31.191-328.797-34.588-332.693-37.857-337.496-39.66-342.541-39.712H-384.634C-389.94-39.784-395.047-37.931-399.117-34.528-402.146-31.134-403.79-26.748-403.859-22.178V-19.586 6.48C-403.79 6.798-403.79 7.031-403.859 7.348-403.917 8.712-404.65 9.876-405.764 10.628H-406.271C-406.643 10.806-407.071 10.928-407.496 10.928-407.865 10.997-408.303 10.997-408.676 10.928H-410.201-411.309C-411.749 10.864-412.168 10.679-412.549 10.489L-413.048 10.13C-414.153 9.379-414.889 8.217-414.959 6.851-415.009 6.544-415.009 6.299-414.959 5.995V-20.138-22.242C-415.073-26.802-416.8-31.191-419.814-34.588-423.889-37.995-429.002-39.784-434.246-39.66H-435.343-491.797V-13.408C-491.988-5.685-495.733 1.539-502.023 6.058-507.699 9.689-514.167 11.855-520.892 12.225H-526.365C-532.956 11.797-539.307 9.689-544.852 6.058-551.252 1.666-555.199-5.622-555.322-13.408V-36.133C-555.322-36.133-555.696-38.111-555.999-39.469H-623.785C-624.281-39.538-624.71-39.538-625.202-39.469-630.494-39.538-635.612-37.677-639.623-34.274-642.955-30.201-644.679-25.078-644.421-19.83V-19.093 35.826C-644.316 38.599-646.463 40.895-649.246 41.011H-649.675-651.09C-653.845 41.075-656.202 38.847-656.265 36.08V35.885-19.027-22.983C-656.202-30.77-652.371-37.995-646.03-42.432-640.049-46.266-633.153-48.424-626.058-48.615H-621.626-554.83C-553.48-54.105-550.088-58.865-545.345-61.891-539.79-65.53-533.438-67.637-526.862-68.069H-525.989-523.583-522.724C-516.13-67.574-509.793-65.466-504.231-61.891-499.503-58.865-496.05-54.105-494.621-48.615H-439.842-435.541C-428.441-48.424-421.554-46.266-415.566-42.432-413.899-41.446-412.422-40.21-411.145-38.73-409.845-40.21-408.36-41.446-406.773-42.5-400.842-46.33-393.931-48.488-386.846-48.668H-381.855-343.771-342.977C-335.949-48.424-329.168-46.33-323.254-42.5-321.648-41.391-320.227-40.078-319.021-38.672-317.65-40.147-316.117-41.446-314.451-42.5-308.469-46.33-301.629-48.424-294.543-48.668H-290.094-240.205-228.484V-43.731C-223.063-46.69-217.088-48.488-210.93-48.795H-206.486C-199.457-48.615-192.617-46.452-186.701-42.623-185.113-41.573-183.684-40.274-182.385-38.799-181.16-40.274-179.605-41.573-177.955-42.559-172.098-46.452-165.262-48.546-158.23-48.737H-153.865C-147.086-48.424-140.557-46.266-134.891-42.559-131.428-40.21-128.783-36.937-127.176-33.107M-505.593-17.237V-22.178-34.528-38.852C-505.661-39.106-505.661-39.36-505.593-39.601-505.593-40.395-505.291-50.103-510.527-54.042-514.599-57.444-519.71-59.296-525.009-59.172H-525.745-526.619C-531.908-59.172-537.03-57.321-541.092-53.927-544.535-49.916-546.26-44.659-545.779-39.36V-17.296-16.554C-546.26-11.308-544.535-6.055-540.965-2.164-536.903 1.234-531.788 3.087-526.485 2.896-526.179 2.96-525.925 2.96-525.618 2.896H-524.882C-519.578 2.96-514.48 1.107-510.4-2.291-506.886-6.299-505.164-11.494-505.661-16.806M-686.697-41.876V7.221C-686.636 10.067-688.985 12.416-691.805 12.475H-691.869-693.228C-696.002 12.596-698.403 10.438-698.53 7.655V7.412-37.55-38.361C-698.359-43.673-700.071-48.859-703.395-52.937-707.526-56.262-712.633-58.062-717.931-58.004-718.185-57.935-718.435-57.935-718.684-58.004H-719.482C-724.783-58.004-729.89-56.148-733.968-52.81-737.355-48.737-739.069-43.546-738.767-38.238V-37.55 7.531C-738.767 10.375-741.052 12.66-743.89 12.66H-744.005-745.427C-748.264 12.723-750.536 10.438-750.607 7.592V7.465-41.945C-750.417-49.668-746.592-56.887-740.252-61.338-734.647-64.981-728.168-67.082-721.463-67.51H-715.968C-709.371-67.018-703.024-64.917-697.481-61.338-691.07-56.951-687.2-49.725-687.078-41.945M-711.969 37.73C-711.529 41.318-714.127 44.585-717.693 44.966-721.28 45.337-724.529 42.803-724.91 39.224-725.335 35.636-722.747 32.368-719.178 31.992-718.924 31.992-718.684 31.928-718.435 31.928-715.039 31.744-712.151 34.336-711.969 37.73M-819.43-47.807H-807.655V36.621C-807.608 39.401-809.766 41.687-812.533 41.741H-812.781-814.256C-816.97 41.877-819.307 39.773-819.43 37.053V36.685-47.686ZM-848.391-22.242V-18.529 36.435C-848.328 39.224-850.493 41.509-853.258 41.567H-853.512-855C-857.765 41.687-860.108 39.583-860.232 36.812V36.435-18.529-19.332C-859.981-24.581-861.705-29.711-865.029-33.726-869.028-36.937-873.904-38.73-879.002-38.92H-950.065C-946.689-24.708-950.371-9.706-960.043 1.234-972.378 14.633-990.867 13.589-1001.645 11.484-1004.475 10.806-1007.265 9.813-1009.901 8.585-1010.95 7.412-1011.455 5.811-1011.205 4.259-1011.205 3.818-1010.341 .986-1007.993 1.361-1001.835 2.037-977.916 9.813-965.528-8.774-960.043-17.853-958.699-28.791-961.834-38.92L-1051.919-38.545C-1057.102-38.361-1062.038-36.381-1065.851-32.853-1068.871-29.458-1070.603-25.078-1070.667-20.519V-18.032 8.643C-1070.603 8.956-1070.603 9.263-1070.667 9.57-1070.788 10.864-1071.454 12.098-1072.565 12.843-1072.686 12.906-1072.876 12.906-1073.003 12.843H-1073.314C-1073.669 13.082-1074.107 13.208-1074.542 13.276H-1075.723-1077.127C-1077.5 13.335-1077.923 13.335-1078.304 13.276-1078.728 13.208-1079.167 13.028-1079.532 12.843H-1080.017C-1081.134 12.098-1081.817 10.864-1081.995 9.57V8.643-17.481-20.201C-1081.995-24.771-1083.724-29.16-1086.81-32.557-1090.804-36.006-1095.982-37.804-1101.289-37.677-1101.958-37.804-1102.636-37.804-1103.324-37.677H-1137.888C-1143.06-37.677-1148.112-35.826-1152.131-32.557-1155.14-29.16-1156.798-24.771-1156.928-20.201V-17.481 8.643 9.443C-1157.055 10.806-1157.739 11.982-1158.833 12.787L-1159.337 13.149-1160.628 13.589H-1161.733-1164.377L-1165.614 13.149H-1166.107C-1167.211 12.416-1167.96 11.177-1168.087 9.813V8.956-17.11-19.893C-1168.087-24.462-1169.801-28.842-1172.883-32.25-1176.963-35.699-1182.129-37.487-1187.435-37.427-1187.991-37.364-1188.594-37.364-1189.161-37.427H-1220.835-1222.316C-1227.616-37.427-1232.783-35.514-1236.85-32.116-1239.809-28.727-1241.479-24.335-1241.532-19.766V8.643C-1241.479 8.956-1241.479 9.263-1241.532 9.57-1241.659 10.928-1242.406 12.165-1243.51 12.906-1243.637 12.977-1243.817 12.977-1243.94 12.906H-1244.242C-1244.613 13.082-1245.052 13.208-1245.467 13.335-1245.855 13.399-1246.225 13.399-1246.581 13.335H-1248.002-1249.12C-1249.537 13.276-1249.974 13.149-1250.351 12.977-1250.467 13.028-1250.531 13.028-1250.643 12.977H-1251.146C-1252.196 12.165-1252.869 10.928-1253.059 9.626-1253.128 9.326-1253.128 9.077-1253.059 8.766V-19.766C-1253.182-24.335-1254.909-28.664-1257.863-32.116-1261.998-35.456-1267.104-37.253-1272.408-37.181H-1302.603C-1307.902-37.253-1313.013-35.456-1317.08-32.06-1320.47-27.987-1322.134-22.792-1321.836-17.481V9.199C-1321.773 11.982-1324.041 14.259-1326.819 14.323H-1327-1328.355C-1331.199 14.395-1333.538 12.038-1333.59 9.199V-16.92-20.751C-1333.474-28.473-1329.649-35.699-1323.307-40.147-1317.397-44.04-1310.496-46.139-1303.407-46.33H-1299.023-1277.206-1272.843C-1265.746-46.139-1258.846-44.04-1252.869-40.147-1251.209-39.169-1249.738-37.931-1248.494-36.445-1247.199-37.931-1245.717-39.224-1244.067-40.21-1238.089-44.04-1231.249-46.203-1224.165-46.383H-1219.909-1192.053-1187.677C-1180.585-46.203-1173.693-44.103-1167.719-40.21-1166.042-39.224-1164.569-37.995-1163.276-36.503-1162.039-37.995-1160.57-39.224-1158.903-40.21-1152.925-44.04-1146.081-46.203-1138.998-46.383H-1134.565-1105.535-1101.091C-1094.003-46.203-1087.178-44.04-1081.204-40.21-1079.532-39.169-1078.05-37.857-1076.76-36.381-1075.464-38.111-1073.861-39.601-1072.02-40.772-1066.042-44.659-1059.126-46.753-1052.052-46.944H-1047.676L-882.966-47.375H-878.522C-871.435-47.185-864.532-45.09-858.554-41.201-852.39-36.874-848.57-29.838-848.391-22.242M-1293.842-61.708C-1293.664-64.981-1290.958-67.51-1287.691-67.51-1284.3-67.701-1281.343-65.103-1281.157-61.708-1281.657-58.116-1284.974-55.656-1288.546-56.148-1291.44-56.58-1293.721-58.801-1294.096-61.708M-1178.618-62.326C-1179.05-65.911-1176.523-69.181-1172.957-69.605-1169.388-70.037-1166.107-67.51-1165.677-63.922-1165.254-60.347-1167.772-57.067-1171.349-56.641-1171.725-56.58-1172.1-56.58-1172.449-56.58-1175.724-56.58-1178.38-59.106-1178.618-62.326M-1161.061-62.326C-1161.061-65.72-1158.285-68.503-1154.897-68.503-1151.507-68.503-1148.725-65.72-1148.725-62.326-1148.725-59.045-1151.264-56.389-1154.523-56.148-1157.917-55.967-1160.882-58.56-1161.061-61.945V-62.326M-1083.724-62.257C-1083.348-65.847-1080.15-68.503-1076.578-68.13-1073.493-67.815-1071.036-65.347-1070.724-62.257-1070.972-58.926-1073.79-56.338-1077.191-56.516-1080.582-56.338-1083.541-58.926-1083.724-62.257V-62.326M-426.785-64.24C-426.785-67.637-424.008-70.417-420.617-70.417-417.365-70.417-414.706-67.878-414.452-64.674-414.452-61.277-417.238-58.497-420.617-58.497-424.008-58.311-426.984-60.904-427.155-64.299V-64.674M-409.273-64.176C-409.095-67.574-406.145-70.171-402.746-69.986-399.359-69.986-396.582-67.198-396.582-63.806-396.836-60.601-399.486-58.062-402.746-58.062-406.145-57.882-409.095-60.469-409.273-63.87V-64.24" fill="#231f20"/>
<path transform="matrix(1,0,0,-1,1379.8721,201.86789)" d="M0 0C0 20.762-26.885 20.079-26.885 20.079H-31.5-45.813-48.947C-50.486 19.897-51.904 19.216-53.082 18.174-54.002 17-54.432 15.527-54.309 14.048V-57.764H-28.162C-28.162-57.764 2.65-59.057 2.65-36.211 2.898-26.713-4.252-18.654-13.689-17.729-5.434-15.879 .309-8.369-.053 .067M-43.154-22.166H-30.822C-30.822-22.166-8.871-20.746-9.119-35.463-9.373-50.189-32.732-49.322-32.732-49.322H-42.906ZM-11.777-1.049C-11.777-13.785-28.848-14.402-28.848-14.402H-42.969V11.525H-32.852C-32.852 11.525-12.203 13.306-11.898-.795M-75.578 14.725C-75.447 16.321-76.131 17.92-77.426 18.909-78.719 19.644-80.209 20.079-81.691 20.079-83.217 20.079-84.711 19.522-85.816 18.54-86.738 17.495-87.309 16.143-87.359 14.725V-57.816H-75.578ZM-121.58-17.855C-113.313-16.006-107.588-8.496-108.002-.054-108.002 20.691-134.826 20.021-134.826 20.021H-153.811-156.9C-158.434 19.834-159.92 19.216-161.096 18.174-161.951 17-162.381 15.581-162.316 14.1V-57.764H-136.121C-136.121-57.764-105.293-59.119-105.293-36.211-104.986-26.713-112.084-18.59-121.58-17.729M-136.799-14.281H-150.916V11.465H-140.627C-140.627 11.465-120.094 13.186-119.781-.864-119.465-13.549-136.799-14.162-136.799-14.162M-117.076-35.717C-117.076-51.23-140.672-49.564-140.672-49.564H-150.916V-22.408H-138.951C-138.951-22.408-116.949-20.934-117.201-35.717M-187.666-57.816H-175.322L-204.799 14.969C-205.6 16.565-206.705 17.92-208.125 19.031-209.305 19.776-210.717 20.206-212.127 20.206-212.498 20.257-212.807 20.257-213.182 20.206H-214.293C-215.771 20.143-217.236 19.713-218.545 18.909-219.951 17.862-221.129 16.448-221.873 14.842L-251.775-57.701H-239.449L-231.426-37.252H-195.428ZM-199.004-28.877H-228.289L-213.494 8.626ZM-263.365 15.026C-263.178 16.629-263.922 18.231-265.209 19.216-266.443 19.957-267.938 20.333-269.41 20.257-271.072 20.384-272.736 19.897-274.031 18.909-274.949 17.81-275.512 16.448-275.512 15.026V-12.254H-315.834V15.026C-315.645 16.448-316.129 17.92-317.182 18.909-318.428 19.713-319.896 20.079-321.367 19.957-324.219 20.257-326.734 18.231-327.051 15.454-327.051 15.21-327.115 14.969-327.051 14.725V-57.881H-315.342V-21.551H-275.004V-58.008H-263.242ZM-410.844-57.205H-374.329V-48.836H-410.889V15.026C-410.717 16.629-411.448 18.231-412.737 19.152-413.979 19.957-415.458 20.333-416.944 20.257-418.486 20.257-419.894 19.776-421.07 18.782-421.986 17.746-422.494 16.385-422.548 14.969V-57.574H-410.889ZM-446.651-57.205H-434.326L-463.853 15.527C-464.588 17.127-465.763 18.54-467.232 19.522-468.412 20.257-469.762 20.691-471.179 20.762-471.56 20.825-471.934 20.825-472.299 20.762-472.674 20.872-472.967 20.872-473.341 20.762-474.765 20.691-476.124 20.257-477.347 19.522-478.837 18.54-479.939 17.127-480.682 15.527L-510.644-57.025H-498.319L-490.291-36.703H-454.288ZM-458.423-28.201H-487.777L-472.967 9.24ZM-555.274 15.654C-555.152 17.248-555.772 18.782-556.941 19.834-558.061 20.635-559.405 21.068-560.765 21.005-562.187 21.005-563.536 20.447-564.532 19.463-565.378 18.358-565.828 17-565.873 15.654V-41.07L-603.305 15.21C-603.305 15.21-606.191 20.021-609.091 20.941-610.941 21.558-612.863 21.558-614.705 20.941-615.697 20.762-616.555 20.206-617.169 19.399-618.045 18.231-618.475 16.814-618.348 15.337V-56.537H-607.859V5.797L-566.503-56.771H-565.378-554.834ZM-643.871-56.717H-631.54L-661.004 16.016C-661.741 17.676-662.92 19.095-664.4 20.206-665.581 20.941-666.923 21.38-668.342 21.38-668.711 21.431-669.022 21.431-669.383 21.38-669.764 21.431-670.064 21.431-670.437 21.38-671.86 21.304-673.275 20.941-674.507 20.206-675.917 19.152-677.095 17.746-677.889 16.143L-707.807-56.467H-695.466L-687.442-36.084H-651.45ZM-655.095-27.775H-684.437L-669.702 9.674ZM-730.247-56.467H-718.778L-727.651 16.258C-727.955 17.92-729.001 19.399-730.494 20.333-731.909 21.126-733.506 21.558-735.104 21.621-736.658 21.734-738.251 21.431-739.674 20.762-741.333 19.644-742.637 18.047-743.435 16.2L-766.548-42.002-790.039 16.258C-790.591 18.047-791.755 19.522-793.369 20.511-794.852 21.304-796.453 21.802-798.115 21.802-799.837 21.865-801.499 21.431-803.054 20.635-804.526 19.586-805.508 18.047-805.808 16.321L-814.818-56.221H-804.212L-797.002 6.602-771.78-56.664H-762.105L-737.012 6.602ZM-833.992 16.2C-833.799 17.862-834.544 19.463-835.909 20.384-837.134 21.253-838.617 21.621-840.099 21.558-841.648 21.621-843.114 21.068-844.228 20.021-845.152 18.909-845.712 17.549-845.712 16.143V-56.404H-833.935ZM-870.985-56.293H-858.653L-888.315 16.629C-889.043 18.231-890.222 19.644-891.705 20.635-892.874 21.431-894.227 21.865-895.64 21.929-896.017 21.988-896.313 21.988-896.694 21.929-897.075 22.052-897.483 22.052-897.864 21.929-899.223 21.865-900.57 21.431-901.744 20.762-903.232 19.776-904.389 18.358-905.136 16.756L-935.038-55.906H-922.713L-914.629-35.537H-878.633ZM-882.203-27.332H-911.551L-896.694 10.398ZM-978.259-55.98H-941.756V-47.043H-978.259V16.756C-978.123 18.358-978.821 19.957-980.1 20.941-981.402 21.734-982.876 22.115-984.367 21.988-985.832 22.052-987.383 21.558-988.494 20.574-989.358 19.522-989.903 18.174-989.903 16.756V-55.844H-978.259ZM-1010.004 16.692C-1009.884 18.358-1010.616 19.957-1011.916 21.005-1013.21 21.734-1014.624 22.115-1016.098 22.115-1017.65 22.115-1019.122 21.621-1020.298 20.574-1021.162 19.463-1021.664 18.11-1021.72 16.692V-33.125C-1022.143-37.865-1024.619-42.182-1028.438-45.023-1032.691-47.043-1037.261-48.215-1041.941-48.455-1046.694-48.527-1051.428-47.229-1055.492-44.77-1059.441-41.938-1061.727-37.314-1061.673-32.449V16.814C-1061.488 18.416-1062.219 20.021-1063.514 21.005-1064.815 21.802-1066.282 22.237-1067.767 22.183-1069.322 22.183-1070.728 21.681-1071.898 20.691-1072.82 19.586-1073.384 18.231-1073.384 16.814V-30.672C-1073.814-38.357-1070.474-45.814-1064.377-50.613-1050.566-59.668-1032.691-59.668-1018.876-50.613-1013.701-45.814-1010.552-39.23-1010.004-32.143ZM-1132.074 4.438C-1132.128 7.15-1130.963 9.726-1128.863 11.465-1119.749 19.586-1100.435 13.242-1100.435 13.242-1098.594 12.567-1096.563 13.486-1095.824 15.337-1095.764 15.527-1095.697 15.654-1095.697 15.825-1095.087 17.676-1095.941 19.713-1097.722 20.574-1123.321 30.234-1142.477 20.021-1143.775 5.179-1144.776-7.572-1134.664-13.301-1125.289-17.238-1120.914-19.145-1116.962-21.061-1114.807-21.859-1091.257-31.211-1105.622-54.93-1130.523-45.875-1134.035-44.584-1137.427-43.051-1140.636-41.197L-1146.377-48.836C-1132.872-58.865-1114.744-60.096-1100.077-51.918-1094.278-48.016-1090.768-41.504-1090.705-34.492-1090.334-21.309-1105.076-13.85-1117.887-8.797-1125.91-5.842-1132.201-1.843-1132.128 4.009M-1205.501-21.98C-1207.473-20.135-1209.998-18.967-1212.715-18.59-1212.715-18.59-1193.216-16.939-1193.216 1.236-1193.216 23.348-1220.164 22.729-1220.164 22.729H-1239.088-1242.243C-1243.781 22.484-1245.259 21.802-1246.373 20.691-1247.236 19.522-1247.665 18.11-1247.601 16.692V-55.166H-1236.377V-21.742H-1228.669C-1224.726-21.488-1220.793-22.346-1217.271-24.201-1214.314-26.84-1211.907-29.99-1210.12-33.496L-1199.639-54.998H-1187.316L-1200.014-29.434C-1201.301-26.547-1203.216-23.955-1205.501-21.742M-1227.929-13.301H-1236.26V14.534H-1225.898C-1221.899 14.598-1217.953 14.1-1214.065 13.052-1208.759 11.646-1205.003 6.845-1204.945 1.357-1204.945-15.271-1228.247-13.418-1228.247-13.418M-1265.299-15.703C-1264.874-.922-1273.376 12.747-1286.815 18.909-1293.711 21.558-1300.982 23.036-1308.396 23.157H-1331.703C-1333.23 23.157-1334.707 22.669-1335.881 21.734-1336.75 20.635-1337.299 19.285-1337.352 17.862V-54.744H-1308.396C-1301.054-54.506-1293.844-53.016-1287.052-50.301-1273.438-44.34-1264.676-30.789-1264.925-15.879M-1277.069-15.703C-1276.456-27.582-1283.111-38.67-1293.89-43.783-1300.123-45.504-1306.543-46.434-1313.008-46.553H-1325.778V14.598H-1313.079C-1306.29 14.725-1299.505 13.74-1293.116 11.525-1282.799 6.469-1276.519-4.243-1277.259-15.703" fill="#231f20"/>
<path transform="matrix(1,0,0,-1,0,425.197)" d="M1092.524 112.112H1081.098V122.803H1092.524ZM1083.853 81.886V94.05H1075.38C1070.128 94.05 1066.259 88.241 1066.259 81.048 1066.259 74.595 1069.937 69.259 1075.106 69.259 1080.542 69.259 1083.853 74.321 1083.853 81.886M1075.196 112.112H1063.7621V122.803H1075.196ZM1113.175 52.759H1100.171C1092.798 52.759 1087.644 56.536 1084.69 64.085 1082.384 60.493 1077.962 58.558 1071.599 58.558 1060.536 58.558 1053.437 68.142 1053.437 80.87 1053.437 94.599 1060.356 103.456 1072.515 103.456 1072.515 103.538 1080.728 103.538 1097.132 103.538V74.505C1097.132 68.429 1100.269 65.101 1106.538 65.101H1113.175Z" fill="#247e38"/>
<path transform="matrix(1,0,0,-1,0,425.197)" d="M1130.413 52.759H1110.684V65.101H1130.413Z" fill="#247e38"/>
<path transform="matrix(1,0,0,-1,0,425.197)" d="M1155.761 37.446H1144.333V48.147H1155.761ZM1170.604 52.759H1129.116V65.101H1137.604C1141.935 65.101 1144.062 68.056 1144.062 73.952V94.505H1157.05V74.413C1157.05 70.999 1156.595 67.962 1155.579 65.101H1170.604ZM1138.438 37.446H1127.002V48.147H1138.438Z" fill="#247e38"/>
<path transform="matrix(1,0,0,-1,1195.6748,354.655)" d="M0 0C0-4.887-1.383-8.938-4.061-12.166-7.1-15.951-11.34-17.783-16.77-17.783H-28.945V-5.441H-19.449C-15.115-5.441-12.902-2.4-12.902 3.6V41.57H0Z" fill="#247e38"/>
<path transform="matrix(1,0,0,-1,1264.0674,372.4382)" d="M0 0H-59.73V12.342H-26.258C-26.258 25.248-33.271 30.967-49.676 30.967V41.746C-41.568 41.746-35.855 41.195-32.445 39.994-19.719 35.482-13.359 26.359-13.359 12.438H0Z" fill="#247e38"/>
<path transform="matrix(1,0,0,-1,0,425.197)" d="M1288.413 37.446H1276.979V48.147H1288.413ZM1303.249 52.759H1261.772V65.101H1270.253C1274.579 65.101 1276.7 68.056 1276.7 73.952V94.505H1289.698V74.413C1289.698 70.999 1289.239 67.962 1288.228 65.101H1303.249ZM1271.085 37.446H1259.651V48.147H1271.085Z" fill="#247e38"/>
<path transform="matrix(1,0,0,-1,1371.5596,360.09638)" d="M0 0 .09 1.664C.09 11.154-4.609 18.344-12.732 18.344-22.221 18.344-30.699 12.17-37.791 0ZM13.084-12.342H-72.176V0H-60.566C-56.328 0-54.023 2.223-54.023 8.852V24.98H-41.109V12.723C-32.91 23.33-22.129 29.596-11.799 29.596 4.705 29.596 13.547 16.963 13.547-3.867 13.547-6.639 13.354-9.502 13.084-12.342" fill="#247e38"/>
<path transform="matrix(1,0,0,-1,615.7661,339.3581)" d="M0 0C1.201-.268 2.58-.363 4.707-.363 12.173-.363 16.773 3.418 16.773 9.682 16.773 15.395 12.817 18.813 5.723 18.813 2.953 18.813 1.016 18.621 0 18.346ZM-13.912 28.217C-9.579 28.949-3.496 29.496 5.066 29.496 13.73 29.496 19.917 27.84 24.064 24.518 28.122 21.383 30.708 16.229 30.708 10.135 30.708 4.057 28.766-1.193 24.979-4.605 20.189-9.031 13.092-11.148 4.794-11.148 2.953-11.148 1.285-11.055 0-10.777V-33.08H-13.912Z" fill="#247e38"/>
<path transform="matrix(1,0,0,-1,654.9419,306.99488)" d="M0 0H14.019V-25.813H14.203C15.679-23.789 17.52-22.229 19.731-21.105 21.84-20.006 24.434-19.361 27.015-19.361 35.951-19.361 42.778-25.537 42.778-39.182V-65.443H28.766V-40.656C28.766-34.758 26.728-30.701 21.479-30.701 17.789-30.701 15.488-33.092 14.473-35.678 14.107-36.508 14.019-37.705 14.019-38.721V-65.443H0Z" fill="#247e38"/>
<path transform="matrix(1,0,0,-1,732.9292,351.1511)" d="M0 0C-7.371 0-13.084-1.746-13.084-7.1-13.084-10.695-10.698-12.441-7.562-12.441-4.146-12.441-1.191-10.137-.281-7.281-.091-6.549 0-5.713 0-4.883ZM13.551-10.422C13.551-14.654 13.736-18.805 14.29-21.287H1.666L.829-16.779H.556C-2.397-20.373-7.01-22.313-12.354-22.313-21.475-22.313-26.91-15.67-26.91-8.486-26.91 3.225-16.411 8.754-.46 8.754V9.305C-.46 11.793-1.759 15.211-8.667 15.211-13.274 15.211-18.155 13.646-21.113 11.793L-23.692 20.83C-20.552 22.584-14.38 24.883-6.165 24.883 8.853 24.883 13.551 16.035 13.551 5.34Z" fill="#247e38"/>
<path transform="matrix(1,0,0,-1,757.6294,342.21559)" d="M0 0C0 6.648-.087 10.973-.358 14.844H11.624L12.173 6.539H12.539C14.849 13.184 20.278 15.947 24.71 15.947 26 15.947 26.644 15.859 27.659 15.674V2.494C26.551 2.68 25.446 2.857 23.874 2.857 18.718 2.857 15.22 .098 14.29-4.23 14.109-5.158 14.021-6.26 14.021-7.371V-30.223H0Z" fill="#247e38"/>
<path transform="matrix(1,0,0,-1,792.6646,341.7527)" d="M0 0C0 5.621-.184 10.324-.37 14.381H11.516L12.082 8.307H12.351C14.289 11.252 18.345 15.484 25.994 15.484 31.891 15.484 36.409 12.447 38.34 7.744H38.53C40.282 10.139 42.217 11.984 44.434 13.283 46.92 14.668 49.687 15.484 53.004 15.484 61.665 15.484 68.222 9.404 68.222-4.148V-30.686H54.574V-6.174C54.574 .375 52.454 4.154 47.93 4.154 44.619 4.154 42.402 1.938 41.392-.734 41.117-1.75 40.931-3.133 40.931-4.326V-30.686H27.283V-5.354C27.283 .281 25.259 4.154 20.729 4.154 17.139 4.154 15.028 1.379 14.203-.83 13.732-1.936 13.641-3.217 13.641-4.424V-30.686H0Z" fill="#247e38"/>
<path transform="matrix(1,0,0,-1,895.9077,351.1511)" d="M0 0C-7.378 0-13.091-1.746-13.091-7.1-13.091-10.695-10.695-12.441-7.563-12.441-4.153-12.441-1.206-10.137-.272-7.281-.094-6.549 0-5.713 0-4.883ZM13.547-10.422C13.547-14.654 13.734-18.805 14.283-21.287H1.65L.82-16.779H.553C-2.391-20.373-7.013-22.313-12.356-22.313-21.482-22.313-26.918-15.67-26.918-8.486-26.918 3.225-16.404 8.754-.463 8.754V9.305C-.463 11.793-1.751 15.211-8.663 15.211-13.275 15.211-18.158 13.646-21.108 11.793L-23.691 20.83C-20.566 22.584-14.38 24.883-6.176 24.883 8.846 24.883 13.547 16.035 13.547 5.34Z" fill="#247e38"/>
<path transform="matrix(1,0,0,-1,954.4429,371.2409)" d="M0 0C-2.489-1.197-7.197-2.127-12.54-2.127-27.106-2.127-36.412 6.813-36.412 20.914-36.412 34.094-27.383 44.885-10.601 44.885-6.911 44.885-2.866 44.24 .092 43.141L-2.123 32.725C-3.78 33.459-6.265 34.094-9.958 34.094-17.339 34.094-22.125 28.844-22.036 21.473-22.036 13.271-16.504 8.85-9.684 8.85-6.361 8.85-3.78 9.395-1.66 10.314Z" fill="#247e38"/>
<path transform="matrix(1,0,0,-1,974.0732,327.3718)" d="M0 0 6.729-22.215C7.472-24.789 8.391-28.213 8.939-30.598H9.313C9.861-28.119 10.601-24.789 11.246-22.119L16.874 0H31.802L21.298-29.684C14.843-47.646 10.514-54.756 5.436-59.268 .646-63.512-4.518-65.07-8.015-65.445L-11.061-53.65C-9.313-53.275-7.098-52.451-4.975-51.246-2.86-50.145-.455-47.838 .833-45.631 1.298-44.885 1.567-44.152 1.567-43.6 1.567-43.045 1.472-42.4 1.012-41.289L-15.575 0Z" fill="#247e38"/>
</g>
</g>
</svg>
